<?xml version="1.0" encoding="UTF-8" standalone="no"?>
<svg width="456" height="456" viewBox="0 0 456 456" version="1.1" xmlns="http://www.w3.org/2000/svg">
  <defs>
    <linearGradient id="vault-bg" x1="72" y1="56" x2="384" y2="400" gradientUnits="userSpaceOnUse">
      <stop offset="0%" stop-color="#1A8B83" />
      <stop offset="55%" stop-color="#156FD6" />
      <stop offset="100%" stop-color="#163A9C" />
    </linearGradient>
    <radialGradient id="vault-glow" cx="0" cy="0" r="1" gradientUnits="userSpaceOnUse" gradientTransform="translate(132 110) rotate(39) scale(250 210)">
      <stop offset="0%" stop-color="#FFFFFF" stop-opacity="0.44" />
      <stop offset="100%" stop-color="#FFFFFF" stop-opacity="0" />
    </radialGradient>
    <linearGradient id="shield-stroke" x1="168" y1="118" x2="300" y2="344" gradientUnits="userSpaceOnUse">
      <stop offset="0%" stop-color="#FFFFFF" stop-opacity="0.98" />
      <stop offset="100%" stop-color="#D9F4FF" stop-opacity="0.95" />
    </linearGradient>
  </defs>

  <rect x="28" y="28" width="400" height="400" rx="108" fill="url(#vault-bg)" />
  <rect x="28" y="28" width="400" height="400" rx="108" fill="url(#vault-glow)" />
  <path
    d="M98 150C98 111.34 129.34 80 168 80H288C326.66 80 358 111.34 358 150V306C358 344.66 326.66 376 288 376H168C129.34 376 98 344.66 98 306V150Z"
    fill="#071A52"
    fill-opacity="0.08"
  />

  <path
    d="M228 104C181.4 126.25 145 132 145 132V219.5C145 287.09 188.61 341.55 228 362C267.39 341.55 311 287.09 311 219.5V132C311 132 274.6 126.25 228 104Z"
    fill="none"
    stroke="url(#shield-stroke)"
    stroke-width="18"
    stroke-linecap="round"
    stroke-linejoin="round"
  />

  <path
    d="M188 218C188 196.46 205.46 179 227 179H229C250.54 179 268 196.46 268 218V232H252V218C252 205.3 241.7 195 229 195H227C214.3 195 204 205.3 204 218V232H188V218Z"
    fill="#FFFFFF"
  />
  <rect x="170" y="228" width="116" height="100" rx="30" fill="#FFFFFF" />
  <path
    d="M228 249C241.25 249 252 259.52 252 272C252 280.45 247.06 287.81 239.75 291.68V309C239.75 315.49 234.49 320.75 228 320.75C221.51 320.75 216.25 315.49 216.25 309V291.68C208.94 287.81 204 280.45 204 272C204 259.52 214.75 249 228 249Z"
    fill="#1348A7"
  />

  <circle cx="320" cy="136" r="12" fill="#FFFFFF" fill-opacity="0.78" />
  <path
    d="M320 112L324.78 125.22L338 130L324.78 134.78L320 148L315.22 134.78L302 130L315.22 125.22L320 112Z"
    fill="#FFFFFF"
  />
</svg>
