<?xml version="1.0" encoding="UTF-8" standalone="no"?>
<svg width="456" height="456" viewBox="0 0 456 456" version="1.1" xmlns="http://www.w3.org/2000/svg">
  <defs>
    <linearGradient id="shield-gradient" x1="164" y1="116" x2="294" y2="340" gradientUnits="userSpaceOnUse">
      <stop offset="0%" stop-color="#FFFFFF" stop-opacity="0.98" />
      <stop offset="100%" stop-color="#E7F7FF" stop-opacity="0.96" />
    </linearGradient>
  </defs>

  <path
    d="M228 100C177.15 124.27 137.4 130.5 137.4 130.5V224.59C137.4 297.25 184.96 355.8 228 378C271.04 355.8 318.6 297.25 318.6 224.59V130.5C318.6 130.5 278.85 124.27 228 100Z"
    fill="none"
    stroke="url(#shield-gradient)"
    stroke-width="20"
    stroke-linecap="round"
    stroke-linejoin="round"
  />

  <path
    d="M186 216C186 193.36 204.36 175 227 175H229C251.64 175 270 193.36 270 216V232H252V216C252 203.85 242.15 194 230 194H226C213.85 194 204 203.85 204 216V232H186V216Z"
    fill="#FFFFFF"
  />
  <rect x="168" y="228" width="120" height="104" rx="30" fill="#FFFFFF" />
  <path
    d="M228 249C241.25 249 252 259.52 252 272C252 280.45 247.06 287.81 239.75 291.68V311C239.75 317.49 234.49 322.75 228 322.75C221.51 322.75 216.25 317.49 216.25 311V291.68C208.94 287.81 204 280.45 204 272C204 259.52 214.75 249 228 249Z"
    fill="#144AA9"
  />

  <path
    d="M318 118L322.78 131.22L336 136L322.78 140.78L318 154L313.22 140.78L300 136L313.22 131.22L318 118Z"
    fill="#FFFFFF"
    fill-opacity="0.96"
  />
</svg>
